<?xml version="1.0" encoding="utf-8"?>
<!-- Generator: Adobe Illustrator 21.1.0, SVG Export Plug-In . SVG Version: 6.00 Build 0)  -->
<svg version="1.1" id="Layer_1" xmlns="http://www.w3.org/2000/svg" xmlns:xlink="http://www.w3.org/1999/xlink" x="0px" y="0px"
	 viewBox="0 0 30.2 30.2" style="enable-background:new 0 0 30.2 30.2;" xml:space="preserve">
<style type="text/css">
	.st0{fill:#32AC41;}
	.st1{fill:#FFFFFF;}
	.st2{fill:url(#SVGID_1_);}
	.st3{fill:#E5E5E5;}
	.st4{fill:#999999;}
	.st5{fill:#14661A;}
	.st6{fill:#4E567A;}
	.st7{fill:#0E254A;}
	.st8{fill:#283154;}
	.st9{fill:#FFA280;}
	.st10{fill:#E8EAEC;}
	.st11{clip-path:url(#SVGID_5_);}
	.st12{clip-path:url(#SVGID_5_);fill:#0E254A;}
	.st13{fill:none;stroke:#0C203A;stroke-width:31.6413;stroke-miterlimit:10;}
	.st14{fill:#FFC7BE;}
	.st15{fill:#FFC7AC;}
	.st16{fill:#006837;}
	.st17{opacity:0.49;}
	.st18{fill:none;stroke:#000000;stroke-width:1.2974;stroke-miterlimit:10;}
	.st19{fill:none;stroke:#000000;stroke-width:1.349;stroke-miterlimit:10;}
	.st20{fill:none;stroke:#FA7C50;stroke-width:1.4382;stroke-miterlimit:10;}
	.st21{fill:none;stroke:#0E254A;stroke-width:1.349;stroke-miterlimit:10;}
	.st22{fill:#122F51;}
	.st23{fill:#AFAAC4;}
	.st24{fill:#827C91;}
	.st25{fill:#968EAB;}
	.st26{clip-path:url(#SVGID_7_);fill:#6FB453;}
	.st27{fill:#B3B3B3;}
	.st28{fill:#808080;}
	.st29{fill:#C4C4C9;}
	.st30{fill:none;stroke:#968EAB;stroke-width:1.7691;stroke-miterlimit:10;}
	.st31{fill:#E6E6E6;}
	.st32{fill:#F2F2F2;}
	.st33{fill:#323966;}
	.st34{fill:none;stroke:#968EAB;stroke-width:1.4611;stroke-miterlimit:10;}
	.st35{fill:none;}
	.st36{fill:#6FB453;}
	.st37{opacity:6.000000e-02;fill:#333333;}
	.st38{fill:#818487;}
	.st39{fill:#C2C7CC;}
	.st40{fill:#333333;}
	.st41{fill:#E8B78B;}
	.st42{fill:#242133;}
	.st43{fill:#2D2A40;}
	.st44{fill:#FFC999;}
	.st45{fill:#F0BD90;}
	.st46{fill:#E6B58C;}
	.st47{fill:#D1A57F;}
	.st48{fill:#DBB08A;}
	.st49{fill:#FCFFFF;}
	.st50{fill:#FFCA98;}
	.st51{fill:#717D87;}
	.st52{fill:#A5B7C6;}
	.st53{fill:none;stroke:#000000;stroke-width:2;stroke-miterlimit:10;}
	.st54{fill:none;stroke:#000000;stroke-width:2;stroke-linecap:round;stroke-linejoin:round;stroke-miterlimit:10;}
	.st55{fill:#E5E5E5;stroke:#FF0000;stroke-miterlimit:10;}
	.st56{opacity:0.5;fill:#32AC41;}
	.st57{fill:#BE3F40;}
	.st58{fill:#FF0000;}
	.st59{fill:#E5E5E5;stroke:#32AC41;stroke-miterlimit:10;}
</style>
<path class="st58" d="M1.5,28.6L1.5,28.6c-1.4-1.4-1.4-3.7,0-5.1L23.4,1.6c1.4-1.4,3.7-1.4,5.1,0l0,0c1.4,1.4,1.4,3.7,0,5.1
	L6.6,28.6C5.2,29.9,2.9,29.9,1.5,28.6z"/>
<path class="st58" d="M1.5,1.6L1.5,1.6c1.4-1.4,3.7-1.4,5.1,0l21.9,21.9c1.4,1.4,1.4,3.7,0,5.1l0,0c-1.4,1.4-3.7,1.4-5.1,0L1.5,6.7
	C0.1,5.3,0.1,3,1.5,1.6z"/>
</svg>
