<?xml version="1.0" encoding="utf-8"?>
<!-- Generator: Adobe Illustrator 21.1.0, SVG Export Plug-In . SVG Version: 6.00 Build 0)  -->
<svg version="1.1" id="Layer_1" xmlns="http://www.w3.org/2000/svg" xmlns:xlink="http://www.w3.org/1999/xlink" x="0px" y="0px"
	 viewBox="0 0 555 681" style="enable-background:new 0 0 555 681;" xml:space="preserve">
<style type="text/css">
	.st0{fill:#32AC41;}
	.st1{fill:#FFFFFF;}
	.st2{fill:url(#SVGID_1_);}
	.st3{fill:#E5E5E5;}
	.st4{fill:#999999;}
	.st5{fill:#14661A;}
	.st6{fill:#4E567A;}
	.st7{fill:#0E254A;}
	.st8{fill:#283154;}
	.st9{fill:#FFA280;}
	.st10{fill:#E8EAEC;}
	.st11{clip-path:url(#SVGID_5_);}
	.st12{clip-path:url(#SVGID_5_);fill:#0E254A;}
	.st13{fill:none;stroke:#0C203A;stroke-width:31.6413;stroke-miterlimit:10;}
	.st14{fill:#FFC7BE;}
	.st15{fill:#FFC7AC;}
	.st16{fill:#006837;}
	.st17{opacity:0.49;}
	.st18{fill:none;stroke:#000000;stroke-width:1.2974;stroke-miterlimit:10;}
	.st19{fill:none;stroke:#000000;stroke-width:1.349;stroke-miterlimit:10;}
	.st20{fill:none;stroke:#FA7C50;stroke-width:1.4382;stroke-miterlimit:10;}
	.st21{fill:none;stroke:#0E254A;stroke-width:1.349;stroke-miterlimit:10;}
	.st22{fill:#122F51;}
	.st23{fill:#AFAAC4;}
	.st24{fill:#827C91;}
	.st25{fill:#968EAB;}
	.st26{clip-path:url(#SVGID_7_);fill:#6FB453;}
	.st27{fill:#B3B3B3;}
	.st28{fill:#808080;}
	.st29{fill:#C4C4C9;}
	.st30{fill:none;stroke:#968EAB;stroke-width:1.7691;stroke-miterlimit:10;}
	.st31{fill:#E6E6E6;}
	.st32{fill:#F2F2F2;}
	.st33{fill:#323966;}
	.st34{fill:none;stroke:#968EAB;stroke-width:1.4611;stroke-miterlimit:10;}
	.st35{fill:none;}
	.st36{fill:#6FB453;}
	.st37{opacity:6.000000e-02;fill:#333333;}
	.st38{fill:#818487;}
	.st39{fill:#C2C7CC;}
	.st40{fill:#333333;}
	.st41{fill:#E8B78B;}
	.st42{fill:#242133;}
	.st43{fill:#2D2A40;}
	.st44{fill:#FFC999;}
	.st45{fill:#F0BD90;}
	.st46{fill:#E6B58C;}
	.st47{fill:#D1A57F;}
	.st48{fill:#DBB08A;}
	.st49{fill:#FCFFFF;}
	.st50{fill:#FFCA98;}
	.st51{fill:#717D87;}
	.st52{fill:#A5B7C6;}
	.st53{fill:none;stroke:#000000;stroke-width:2;stroke-miterlimit:10;}
	.st54{fill:none;stroke:#000000;stroke-width:2;stroke-linecap:round;stroke-linejoin:round;stroke-miterlimit:10;}
	.st55{fill:#E5E5E5;stroke:#FF0000;stroke-miterlimit:10;}
	.st56{opacity:0.5;fill:#32AC41;}
	.st57{fill:#FF0000;}
	.st58{fill:#E5E5E5;stroke:#32AC41;stroke-miterlimit:10;}
</style>
<path class="st1" d="M404.7,169L404.7,169c-38,0-68.8-30.8-68.8-68.8v-1c0-38,30.8-68.8,68.8-68.8h0c38,0,68.8,30.8,68.8,68.8v1
	C473.5,138.2,442.7,169,404.7,169z"/>
<g>
	<polygon points="365.1,114.2 398.1,114.2 413.9,142.1 426.6,142.1 403.8,103.4 359.4,103.4 	"/>
	<polygon class="st36" points="360.6,99.6 374,99.6 387.9,75.5 420.3,75.5 436.8,103.4 422.8,127.5 428.5,139 449.5,103.4 
		426.6,65.4 380.9,65.4 	"/>
</g>
<g>
	<ellipse class="st37" cx="259.3" cy="585.9" rx="208.2" ry="34.5"/>
	<g>
		<g>
			<path class="st38" d="M203.1,392.5L203.1,392.5c2.5,0,4.8,2.1,5.1,4.6l8.6,70c0.3,2.5-1.5,4.6-4,4.6l0,0c-2.5,0-4.8-2.1-5.1-4.6
				l-8.6-70C198.8,394.6,200.6,392.5,203.1,392.5z"/>
			<path class="st38" d="M160.2,392.5L160.2,392.5c2.5,0,4.8,2.1,5.1,4.6l8.6,70c0.3,2.5-1.5,4.6-4,4.6l0,0c-2.5,0-4.8-2.1-5.1-4.6
				l-8.6-70C155.9,394.6,157.7,392.5,160.2,392.5z"/>
			<path class="st39" d="M274.4,468.7L274.4,468.7c2.4,0,4.6,1.5,4.8,3.4L297,585.7c0.4,3.2-1.9,5.8-5.1,5.8l0,0
				c-3.2,0-6.1-2.6-6.4-5.8l-15.1-113.6C270.1,470.2,272,468.7,274.4,468.7z"/>
			<path class="st39" d="M247.7,468.7L247.7,468.7c2.4,0,4.5,1.5,4.6,3.4l9.7,102.6c0.2,3.2-2.2,5.8-5.4,5.8l0,0
				c-3.2,0-5.9-2.6-6.1-5.8l-7.1-102.6C243.3,470.2,245.2,468.7,247.7,468.7z"/>
			<path class="st39" d="M191.7,468.7L191.7,468.7c2.4,0,4.3,1.5,4.2,3.4l-7.1,113.6c-0.2,3.2-2.9,5.8-6.1,5.8l0,0
				c-3.2,0-5.6-2.6-5.4-5.8l9.7-113.6C187.2,470.2,189.3,468.7,191.7,468.7z"/>
			<path class="st39" d="M165,468.7L165,468.7c2.4,0,4.2,1.5,4,3.4l-15.1,102.6c-0.3,3.2-3.2,5.8-6.4,5.8l0,0
				c-3.2,0-5.5-2.6-5.1-5.8l17.8-102.6C160.4,470.2,162.6,468.7,165,468.7z"/>
			<path d="M153.9,481h127.7c4,0,7.3-3.3,7.3-7.3l0,0c0-4-3.3-7.3-7.3-7.3H153.9c-4,0-7.3,3.3-7.3,7.3l0,0
				C146.6,477.7,149.9,481,153.9,481z"/>
			<path d="M158.2,425.7h53.1c10.6,0,18.2-8.7,16.9-19.3l-10.1-82.9c-1.3-10.6-11-19.3-21.6-19.3h-53.1c-10.6,0-18.2,8.7-16.9,19.3
				l10.1,82.9C137.9,417,147.6,425.7,158.2,425.7z"/>
		</g>
		<g>
			<g>
				<g>
					<path class="st40" d="M275.5,568.1c0.1,2.6,0.7,6,2.1,10.1c0,0,5.2,2.7,12.6,3.7l3-4l2.3,4c0,0,17.2,3.5,30.8-1.7
						c0.8-0.3,1.4-1.2,1.4-2.3c0.2-3.2-0.2-9.7-5.3-12.9c-6.2-3.7-16.6-3.5-24.9-5.5c-3.7-0.9-4.9-1.6-7.5-1.4l-8.2,1
						C278,559.7,275.2,563.5,275.5,568.1z"/>
					<path d="M327.8,574.8c0.1,1.2,0.1,2.3,0.1,3.2c-0.1,1.1-0.6,2-1.4,2.3c-13.6,5.2-30.8,1.7-30.8,1.7l-2.3-4l-3,4
						c-7.5-1.1-12.6-3.7-12.6-3.7c-0.3-0.9-0.6-1.8-0.8-2.7c4.3,2.4,11.8,2.9,11.8,2.9l4.6-5l5,5.2
						C312.4,580.6,323.4,576.7,327.8,574.8z"/>
					<path d="M323.3,565.7c4.4,3.3,4.7,9.3,4.5,12.3c-0.1,1.1-0.6,2-1.4,2.3c-2.2,0.8-4.4,1.4-6.7,1.9c-0.2-0.6-0.3-1.1-0.4-1.7
						C318,574.4,319.7,568.6,323.3,565.7z"/>
					<g>
						<path d="M298.7,560.9c-0.6,1.7-1.1,3.4-1.4,5.1c-0.1,0.9-0.2,1.7-0.1,2.6c0.1,0.4,0.2,0.8,0.5,1.1c0.3,0.3,0.7,0.3,1.1,0.3
							c0.4,0,0.8-0.2,1.1-0.4c0.3-0.3,0.5-0.6,0.5-1.1c0.2-0.8,0-1.7-0.1-2.6C300.1,564.2,299.4,562.5,298.7,560.9z M298.7,560.9
							c0.8,1.6,1.6,3.2,2,4.9c0.2,0.9,0.3,1.8,0.2,2.7c-0.1,0.5-0.3,0.9-0.6,1.3c-0.4,0.3-0.9,0.5-1.3,0.5c-0.5,0-1-0.1-1.4-0.4
							c-0.4-0.3-0.5-0.8-0.6-1.3c-0.1-0.9,0-1.8,0.1-2.7C297.4,564.2,298,562.5,298.7,560.9z"/>
					</g>
					<g>
						<path d="M298.7,560.9c1.1,0.4,2,1.1,2.8,1.9c0.8,0.8,1.6,1.6,2.3,2.5c0.7,0.9,1.3,1.9,1.9,2.8l0.8,1.5l0.7,1.5l-1.8-2.9
							c-0.6-0.9-1.2-1.9-1.9-2.8c-0.7-0.9-1.4-1.8-2.2-2.6C300.6,562.2,299.7,561.4,298.7,560.9z"/>
					</g>
				</g>
				<g>
					<path class="st41" d="M299.9,561.3c1.8-13,5.5-25.8,7.7-40.7c1-7.4,1.5-15.5,0.5-23.9c-0.2-2.1-0.7-4.2-1-6.3
						c-0.4-2.1-1-4.1-1.6-6.2c-0.7-2-1.4-4-2.1-6.1c-1.2-2.5-2.6-5.3-4-7.2c-5.9-8.2-12.2-13.3-18.4-18.1c-6.3-4.7-12.6-8.7-19-12.4
						c-12.8-7.4-25.7-13.7-38.7-19.5l-14.2,38.3c12.7,3.8,25.2,8,37.1,12.9c5.9,2.5,11.6,5.1,16.8,8c5.2,2.8,10,6.2,12.5,8.9
						c0.8,0.7,0.9,1.1,1.5,1.5l1.8,3.5c0.5,1.2,1,2.4,1.5,3.6c0.4,1.3,0.9,2.5,1.2,3.8c1.4,5.2,1.9,11,1.9,17.2
						c-0.1,12.5-2.1,26.7-2.3,41.1L299.9,561.3z"/>
				</g>
				<path class="st42" d="M209.8,463.5c17.2,6.7,36.2,13.8,50,17.8c0,0,13.7-15.3,17.2-41.6c0,0-32.1-21.9-62.6-29.7l-26.5-1.3l0,0
					C177.9,429.8,188,455,209.8,463.5z"/>
			</g>
			<path class="st43" d="M235.1,427.3c0.2,21-9.1,47.2-31.8,47.2c-22.7,0-41-17.2-40.8-38.2c0.2-20.8,18.4-37.6,40.8-37.6
				C225.6,398.8,234.9,406.5,235.1,427.3z"/>
			<g>
				<g>
					<path class="st40" d="M246.7,580.8c0.1,2.6,0.7,6,2.1,10.1c0,0,5.2,2.7,12.6,3.7l3-4l2.3,4c0,0,17.2,3.5,30.8-1.7
						c0.8-0.3,1.4-1.2,1.4-2.3c0.2-3.2-0.2-9.7-5.3-12.9c-6.2-3.7-16.6-3.5-24.9-5.5c-3.7-0.9-4.9-1.6-7.5-1.4l-8.2,1
						C249.3,572.3,246.5,576.2,246.7,580.8z"/>
					<path d="M299,587.4c0.1,1.2,0.1,2.3,0.1,3.2c-0.1,1.1-0.6,2-1.4,2.3c-13.6,5.2-30.8,1.7-30.8,1.7l-2.3-4l-3,4
						c-7.5-1.1-12.6-3.7-12.6-3.7c-0.3-0.9-0.6-1.8-0.8-2.7c4.3,2.4,11.8,2.9,11.8,2.9l4.6-5l5,5.2
						C283.7,593.2,294.7,589.3,299,587.4z"/>
					<path d="M294.6,578.3c4.4,3.3,4.7,9.3,4.5,12.3c-0.1,1.1-0.6,2-1.4,2.3c-2.2,0.8-4.4,1.4-6.7,1.9c-0.2-0.6-0.3-1.1-0.4-1.7
						C289.3,587,291,581.3,294.6,578.3z"/>
					<g>
						<path d="M270,573.5c-0.6,1.7-1.1,3.4-1.4,5.1c-0.1,0.9-0.2,1.7-0.1,2.6c0.1,0.4,0.2,0.8,0.5,1.1c0.3,0.3,0.7,0.3,1.1,0.3
							c0.4,0,0.8-0.2,1.1-0.4c0.3-0.3,0.5-0.6,0.5-1.1c0.2-0.8,0-1.7-0.1-2.6C271.3,576.8,270.7,575.2,270,573.5z M270,573.5
							c0.8,1.6,1.6,3.2,2,4.9c0.2,0.9,0.3,1.8,0.2,2.7c-0.1,0.5-0.3,0.9-0.6,1.3c-0.4,0.3-0.9,0.5-1.3,0.5c-0.5,0-1-0.1-1.4-0.4
							c-0.4-0.3-0.5-0.8-0.6-1.3c-0.1-0.9,0-1.8,0.1-2.7C268.7,576.8,269.3,575.2,270,573.5z"/>
					</g>
					<g>
						<path d="M270,573.5c1.1,0.4,2,1.1,2.8,1.9c0.8,0.8,1.6,1.6,2.3,2.5c0.7,0.9,1.3,1.9,1.9,2.8l0.8,1.5l0.7,1.5l-1.8-2.9
							c-0.6-0.9-1.2-1.9-1.9-2.8c-0.7-0.9-1.4-1.8-2.2-2.6C271.8,574.8,271,574.1,270,573.5z"/>
					</g>
				</g>
				<g>
					<path class="st44" d="M271.1,573.9c1.8-13,5.5-25.8,7.7-40.7c1-7.4,1.5-15.5,0.5-23.9c-0.2-2.1-0.7-4.2-1-6.3
						c-0.4-2.1-1-4.1-1.6-6.2c-0.7-2-1.4-4-2.1-6.1c-1.2-2.5-2.6-5.3-4-7.2c-5.9-8.2-12.2-13.3-18.4-18.1c-6.3-4.7-12.6-8.7-19-12.4
						c-12.8-7.4-25.7-13.7-38.7-19.5l-14.2,38.3c12.7,3.8,25.2,8,37.1,12.9c5.9,2.5,11.6,5.1,16.8,8c5.2,2.8,10,6.2,12.5,8.9
						c0.8,0.7,0.9,1.1,1.5,1.5l1.8,3.5c0.5,1.2,1,2.4,1.5,3.6c0.4,1.3,0.9,2.5,1.2,3.8c1.4,5.2,1.9,11,1.9,17.2
						c-0.1,12.5-2.1,26.7-2.3,41.1L271.1,573.9z"/>
				</g>
				<path class="st43" d="M181,476.2c17.2,6.7,36.2,13.8,50,17.8c0,0,13.7-15.3,17.2-41.6c0,0-32.1-21.9-62.6-29.7l-26.5-1.3l0,0
					C149.2,442.5,159.2,467.7,181,476.2z"/>
			</g>
			<g>
				<g>
					<path class="st45" d="M293.8,407c3.6,0,5.9-0.3,6.3-0.4c4.6-0.7,7.7-5,7-9.6c-0.7-4.6-4.9-7.7-9.5-7
						c-0.8,0.1-19.1,2.4-34.2-11.3c-15.3-13.9-22.3-39.3-20.7-75.3c0.2-4.6-3.4-8.5-8-8.8c-4.6-0.1-8.6,3.4-8.8,8
						c-1.8,41.5,7.1,71.3,26.5,88.7C267.4,405,284.7,407,293.8,407z"/>
				</g>
				<path class="st1" d="M247,309.5c0,0,0.7,25,9.5,36.3c0,0-14.2,15.4-24.5,16.8c0,0-21-27.4-11.9-50
					C229.3,290,250.2,287.1,247,309.5z"/>
				<g>
					<path class="st45" d="M320.4,392c0,0,1.2-3-0.9-5c-2.2-2-8.9,2.4-10.9,4.3L320.4,392z"/>
					<path class="st45" d="M300,406.6c-2.8,0.7-5.6-5.3-5.5-8.2c0.1-3.4,0.8-7.6,3.3-8.3c0,0,7.7-0.1,16.6-0.5
						c8.8-0.4,24.8,6.8,23.8,11.4c-0.9,4.7-5.8,2.1-11.4-1c-5.6-3.1-14.3-1.2-17.5,1.3C309.3,401.3,303.5,405.7,300,406.6z"/>
				</g>
			</g>
			<g>
				<path class="st1" d="M249.2,411.6c2.4-68.4-5.8-115.7-5.8-115.7c-13.8-14.7-43.3-13.4-43.3-13.4s-25.1-2.3-43.3,13.4
					c0,0-6.2,47.4-3.6,115.8c0.3,8.2,6.3,14.9,14.1,15.7c14.4,1.5,39.2,3.1,67.8-0.1C242.9,426.5,248.9,419.8,249.2,411.6z"/>
			</g>
			<g>
				<polygon points="180.7,349.9 202.3,349.9 212.6,368.1 220.9,368.1 206,342.9 177,342.9 				"/>
				<polygon class="st36" points="177.8,340.4 186.5,340.4 195.6,324.6 216.8,324.6 227.5,342.9 218.4,358.6 222.2,366.1 
					235.8,342.9 220.9,318 191.1,318 				"/>
			</g>
			<g>
				<path class="st44" d="M185.7,285.2c-0.6,4.2,1.8,6,5.9,7.4c2.7,0.9,5.7,1.4,8.7,1.4c2.6,0,5.1-0.4,7.5-1
					c4.3-1.2,7.1-3.1,6.5-7.6l-1.6-11.4h-25.4L185.7,285.2z"/>
				<path class="st46" d="M214.3,285.1l-1.6-11.1h-25.4l-0.9,6.1C194.4,283.1,204,285,214.3,285.1z"/>
			</g>
			<g>
				<g>
					<path class="st44" d="M154.6,214.8c0,0-7.1-13.1-16.6-6.8c-8.5,5.7,1.5,38.2,15.8,28L154.6,214.8z"/>
					<path class="st46" d="M151.8,216.3c0,0-5.1-10.6-11.8-5.5c-6,4.6,1.3,28.2,11.4,20.1L151.8,216.3z"/>
					
						<ellipse transform="matrix(0.9985 -5.406534e-02 5.406534e-02 0.9985 -11.7686 8.357)" class="st44" cx="148.6" cy="221.7" rx="3.8" ry="3.2"/>
					<path class="st47" d="M141.4,211.5c-3.7,2.8-2.8,12.9,1,18.4c-4.5-5.1-6.3-16.2-2.3-19.2c2.8-2.1,5.3-1.5,7.3,0
						C145.6,209.9,143.6,209.9,141.4,211.5z"/>
				</g>
				<path class="st46" d="M256.2,208c-9.5-6.4-16.6,6.8-16.6,6.8l0.8,21.2C254.7,246.2,264.7,213.7,256.2,208z"/>
				<path class="st44" d="M240.8,183c3,8.5,4.8,20.2,7,31.3c2.1,10.7,8.3,46.3-25.2,59.3c-33.5,13-64.2-6.1-70.7-29.2
					c-7.3-26.1-3.7-42.2,2.4-59.1c8-22.2,26.6-29.8,46-30C219.1,155.1,234.5,164.2,240.8,183z"/>
				<g>
					<path class="st48" d="M221.5,254.7c-0.1-0.2-0.3-0.3-0.5-0.4l-0.6-0.3l-1.2-0.6c-0.8-0.4-1.6-0.7-2.4-1c-1.6-0.7-3.2-1.4-4.8-2
						c-3.2-1.3-6.5-2.6-9.7-3.7c-3.3-1.2-6.6-2.3-9.9-2.9c-1.7-0.2-3.4-0.1-4.8,0.9c-1.4,0.9-2.2,2.6-2.6,4.3
						c0.1-1.7,0.9-3.5,2.3-4.6c1.4-1.2,3.4-1.4,5.2-1.2c1.8,0.2,3.5,0.7,5.2,1.1c1.7,0.5,3.4,1,5,1.6c3.3,1.2,6.5,2.5,9.7,4
						c1.6,0.7,3.2,1.5,4.7,2.3c0.8,0.4,1.5,0.8,2.3,1.2l1.1,0.6l0.6,0.4C221.2,254.4,221.4,254.5,221.5,254.7z"/>
				</g>
				<path d="M230.1,175.2c0,0,7.1,5.5,9.6,19.2c2.5,13.7,4.6,18.1,7.8,18c3.2,0,4.6-29.2-11.5-43.4L230.1,175.2z"/>
				<path d="M144.8,208.5c0,0,4.3,7,11,4.1c6.7-2.9,8-38.2,8-38.2s29.4,6.6,54.2,5.1l-6.8-6.4c0,0,23.9,10.2,40.8-7
					c0,0-9.9-10.4-24.8-13.9l9-1.6c0,0-1.8-5.4-21.8-11.3c-20-5.9-48.9-0.8-56.7,21C157.7,160.3,139.8,167.5,144.8,208.5z"/>
				<path class="st48" d="M207.8,220.9c0,0,1.1,10.5,13.3,14.2c0,0-4.4,7.6-13.3,6.1c0,0,2.1-1,4.6-5
					C212.4,236.1,205.8,231.3,207.8,220.9z"/>
				<g>
					<path d="M213.2,189.4c0.6,2.4,1.5,4.8,3.1,6.7c1.5,1.9,3.6,3.3,5.9,4c2.3,0.7,4.8,0.8,7.2,0.2c2.4-0.5,4.7-1.6,6.6-3.2
						c-1.7,1.8-4,3.1-6.4,3.8c-2.5,0.7-5.1,0.6-7.5-0.1c-2.4-0.8-4.7-2.3-6.1-4.4C214.3,194.3,213.5,191.8,213.2,189.4z"/>
				</g>
				<g>
					<path d="M198.5,193.3c-1.1,1.5-2.6,2.8-4.2,3.9c-1.6,1.1-3.4,1.9-5.3,2.4c-0.9,0.3-1.9,0.3-2.9,0.5c-1,0-1.9,0-2.9-0.2
						c-1-0.1-1.9-0.4-2.8-0.7c-0.5-0.1-0.9-0.4-1.3-0.5c-0.4-0.2-0.9-0.4-1.3-0.6c1.8,0.6,3.6,1.2,5.5,1.3c0.9,0.1,1.9,0.1,2.8,0
						c0.9-0.1,1.9-0.2,2.7-0.5c1.8-0.4,3.5-1.2,5.2-2.1c0.8-0.5,1.6-1,2.3-1.6C197.1,194.5,197.8,193.9,198.5,193.3z"/>
				</g>
				<g>
					<path class="st49" d="M200.2,221.2c0,0-1.6-18-14.5-18c-12.9,0-13.3,18-13.3,18S185.8,227.8,200.2,221.2z"/>
					<g>
						<path d="M200.2,221.2c-0.3-2.1-0.8-4.1-1.5-6.1c-0.7-2-1.5-3.9-2.7-5.6c-1.1-1.7-2.6-3.3-4.3-4.4c-0.9-0.5-1.8-0.9-2.8-1.2
							c-1-0.2-2-0.4-3-0.4c-2-0.1-4.1,0.4-5.9,1.4c-0.9,0.5-1.7,1.2-2.4,1.9c-0.7,0.8-1.3,1.6-1.9,2.5c-1.1,1.8-1.8,3.7-2.4,5.7
							c-0.6,2-0.9,4.1-1.1,6.2c0.2-4.2,1-8.4,3.1-12.1c1-1.8,2.5-3.5,4.4-4.6c1.8-1.1,4-1.6,6.1-1.6c1.1,0,2.1,0.2,3.2,0.5
							c1,0.3,2,0.7,2.9,1.3c1.8,1.1,3.3,2.7,4.4,4.5C198.6,212.9,199.7,217,200.2,221.2z"/>
					</g>
					<path class="st16" d="M191.1,212.6c1,0,2,1,2.5,2.5l-1.3,1.8l1.8,0.8c0,0.2,0,0.5,0,0.8c0,3.2-1.4,5.9-3.1,5.9
						c-1.7,0-3.1-2.6-3.1-5.9C188.1,215.2,189.4,212.6,191.1,212.6z"/>
				</g>
				<g>
					<path class="st49" d="M239.6,220.4c0,0-1.2-16.5-13-16.5c-11.8,0-12.2,16.5-12.2,16.5S226.5,226.3,239.6,220.4z"/>
					<g>
						<path d="M239.6,220.4c-0.2-1.9-0.7-3.8-1.2-5.6c-0.6-1.8-1.3-3.6-2.4-5.2c-1-1.6-2.3-3-3.9-4c-0.8-0.5-1.7-0.9-2.5-1.1
							c-0.9-0.2-1.8-0.4-2.8-0.4c-1.9,0-3.7,0.4-5.3,1.3c-1.6,0.9-2.9,2.4-3.9,4c-1,1.6-1.7,3.4-2.2,5.2c-0.5,1.8-0.9,3.7-1,5.6
							c0.1-3.8,0.9-7.7,2.8-11.1c0.9-1.7,2.3-3.2,4-4.2c1.7-1,3.7-1.5,5.6-1.4c1,0,1.9,0.2,2.9,0.4c0.9,0.3,1.8,0.7,2.7,1.2
							c1.6,1.1,3,2.5,4,4.2C238.3,212.7,239.3,216.6,239.6,220.4z"/>
					</g>
					<path class="st16" d="M232,212.7c1,0,1.8,0.9,2.3,2.3l-0.5,1.6l1,0.8c0,0.2,0,0.5,0,0.7c0,3-1.3,5.4-2.8,5.4
						c-1.5,0-2.8-2.4-2.8-5.4C229.2,215.1,230.4,212.7,232,212.7z"/>
				</g>
			</g>
			<g>
				<g>
					<path class="st44" d="M239.7,404.7c1.4,0,2.4,0,3,0c4.6-0.1,8.3-4,8.1-8.6c-0.1-4.5-3.9-8.1-8.4-8.1c-0.1,0-0.2,0-0.3,0
						c-12,0.4-45.7-2-56.9-16.6c-10.3-13.3-15.9-34.9-18.9-50.8c-0.8-4.6-5.2-7.6-9.8-6.7c-4.6,0.8-7.6,5.2-6.7,9.8
						c3.3,17.6,9.8,42,22.1,57.9C188.5,403,227.8,404.7,239.7,404.7z"/>
				</g>
				<g>
					<path class="st50" d="M267.9,390.6c0,0,1.2-3-0.9-5c-2.2-2-8.9,2.4-10.9,4.3L267.9,390.6z"/>
					<path class="st50" d="M245.6,403.7c-2.8,0.7-3.7-3.8-3.6-6.7c0.1-3.4-0.7-8.2,1.7-8.9c0,0,9.3,0.5,18.1,0.1
						c8.8-0.4,24.8,6.8,23.8,11.4c-0.9,4.7-5.8,2.1-11.4-1c-5.6-3.1-17.2-2.6-20.4-0.1C253.9,398.5,249,402.8,245.6,403.7z"/>
				</g>
				<path class="st32" d="M177.9,350.8c-5.5,0.9-16.3,2.7-23.6,4.7c-1.9,0.5-3.8-0.5-4.3-2.4c-2.1-7.9-6.5-28.2-2.3-48.5
					c0.8-4.1,5.1-8.5,9.2-9.6c13-3.4,19.6,7.4,21.2,25.2c1.2,13.9,2.1,22.4,2.7,26.6C181,348.8,179.8,350.5,177.9,350.8z"/>
			</g>
		</g>
	</g>
	<g>
		<path class="st38" d="M163.6,591.9L163.6,591.9c-4.6,0-8.2-3.7-8.2-8.2v-166h16.5v166C171.9,588.2,168.2,591.9,163.6,591.9z"/>
		<path class="st38" d="M82.8,591.9L82.8,591.9c-4.6,0-8.2-3.7-8.2-8.2v-166H91v166C91,588.2,87.3,591.9,82.8,591.9z"/>
		<path class="st38" d="M430.4,591.9h-11.6c-1.4,0-2.5-1.1-2.5-2.5V417.6h16.5v171.8C432.9,590.8,431.8,591.9,430.4,591.9z"/>
		<path class="st38" d="M349.6,591.9H338c-1.4,0-2.5-1.1-2.5-2.5V417.6H352v171.8C352,590.8,350.9,591.9,349.6,591.9z"/>
		
			<rect x="61" y="406.8" transform="matrix(-1 -4.489843e-11 4.489843e-11 -1 507.4064 824.4858)" class="st1" width="385.5" height="10.9"/>
		
			<rect x="74.5" y="417.7" transform="matrix(-1 -4.490109e-11 4.490109e-11 -1 507.4067 855.3598)" class="st38" width="358.3" height="20"/>
		<g>
			<polygon class="st51" points="318.7,399.3 361.7,399.3 364.3,373.1 321.3,373.1 			"/>
			<path class="st52" d="M269.3,384.3H406c3.6,0,6.8-3.1,7.1-6.8l6.8-92.7c0.3-3.8-2.5-6.8-6.1-6.8H277c-3.6,0-6.8,3.1-7.1,6.8
				l-6.8,92.7C262.9,381.2,265.6,384.3,269.3,384.3z"/>
			<path class="st51" d="M327.4,334c-0.9,9,5.4,16.3,14.1,16.3s16.4-7.3,17.3-16.3c0.9-9-5.4-16.3-14.1-16.3S328.3,325,327.4,334z"
				/>
			<path class="st52" d="M300.5,406.8h74.9c0.8,0,1.4-0.6,1.4-1.4v-6.7c0-0.8-0.6-1.4-1.4-1.4h-74.9c-0.8,0-1.4,0.6-1.4,1.4v6.7
				C299.1,406.2,299.7,406.8,300.5,406.8z"/>
			<path class="st52" d="M202.5,406.8H292c0.8,0,1.4-0.6,1.4-1.4v-6.7c0-0.8-0.6-1.4-1.4-1.4h-89.5c-0.8,0-1.4,0.6-1.4,1.4v6.7
				C201.1,406.2,201.7,406.8,202.5,406.8z"/>
		</g>
	</g>
</g>
<path class="st53" d="M204,228.5h-34c-1.1,0-2-0.9-2-2V205c0-1.1,0.9-2,2-2h34c1.1,0,2,0.9,2,2v21.5
	C206,227.6,205.1,228.5,204,228.5z"/>
<path class="st53" d="M251,228.5h-34c-1.1,0-2-0.9-2-2V205c0-1.1,0.9-2,2-2h34c1.1,0,2,0.9,2,2v21.5
	C253,227.6,252.1,228.5,251,228.5z"/>
<line class="st54" x1="206" y1="207" x2="215" y2="207"/>
<line class="st54" x1="168" y1="207" x2="145.9" y2="198"/>
<line class="st54" x1="253" y1="207" x2="246" y2="205"/>
<path class="st1" d="M340,241c0,0-5,21,12,33c0,0-16-15,0-33H340z"/>
<circle class="st1" cx="349.6" cy="216" r="30.5"/>
<path class="st57" d="M335.6,230L335.6,230c-1.4-1.4-1.4-3.8,0-5.3l22.8-22.8c1.4-1.4,3.8-1.4,5.3,0l0,0c1.4,1.4,1.4,3.8,0,5.3
	L340.9,230C339.4,231.5,337.1,231.5,335.6,230z"/>
<path class="st57" d="M335.6,202L335.6,202c1.4-1.4,3.8-1.4,5.3,0l22.8,22.8c1.4,1.4,1.4,3.8,0,5.3l0,0c-1.4,1.4-3.8,1.4-5.3,0
	l-22.8-22.8C334.2,205.8,334.2,203.5,335.6,202z"/>
</svg>
