<svg id="Layer_1" data-name="Layer 1" xmlns="http://www.w3.org/2000/svg" viewBox="0 0 555 681"><defs><style>.cls-1{fill:#fff;}.cls-2{fill:#6fb453;}.cls-3,.cls-6{fill:#333;}.cls-3{opacity:0.06;}.cls-4{fill:#818487;}.cls-5{fill:#c2c7cc;}.cls-7{fill:#e8b78b;}.cls-8{fill:#242133;}.cls-9{fill:#2d2a40;}.cls-10{fill:#ffc999;}.cls-11{fill:#f0bd90;}.cls-12{fill:#e6b58c;}.cls-13{fill:#d1a57f;}.cls-14{fill:#dbb08a;}.cls-15{fill:#ffca98;}.cls-16{fill:#f2f2f2;}.cls-17{fill:#717d87;}.cls-18{fill:#a5b7c6;}.cls-19,.cls-20{fill:none;stroke:#000;stroke-width:2px;}.cls-19{stroke-miterlimit:10;}.cls-20{stroke-linecap:round;stroke-linejoin:round;}.cls-21{fill:#fcffff;}</style></defs><title>final</title><rect class="cls-1" x="335.96" y="30.5" width="137.54" height="138.5" rx="68.77" ry="68.77"/><polygon points="365.07 114.22 398.07 114.22 413.93 142.13 426.62 142.13 403.77 103.43 359.37 103.43 365.07 114.22"/><polygon class="cls-2" points="360.63 99.62 373.96 99.62 387.92 75.52 420.27 75.52 436.77 103.43 422.81 127.54 428.52 138.96 449.45 103.43 426.62 65.36 380.94 65.36 360.63 99.62"/><ellipse class="cls-3" cx="259.32" cy="585.86" rx="208.18" ry="34.47"/><path class="cls-4" d="M203.1,392.52h0a5.35,5.35,0,0,1,5.15,4.59l8.56,70a4,4,0,0,1-4,4.59h0a5.35,5.35,0,0,1-5.15-4.59l-8.56-70A4,4,0,0,1,203.1,392.52Z"/><path class="cls-4" d="M160.21,392.52h0a5.35,5.35,0,0,1,5.15,4.59l8.56,70a4,4,0,0,1-4,4.59h0a5.35,5.35,0,0,1-5.15-4.59l-8.56-70A4,4,0,0,1,160.21,392.52Z"/><path class="cls-5" d="M274.38,468.71h0c2.42,0,4.59,1.51,4.83,3.36L297,585.71a5,5,0,0,1-5.09,5.76h0a6.63,6.63,0,0,1-6.43-5.76L270.34,472.07C270.14,470.21,272,468.71,274.38,468.71Z"/><path class="cls-5" d="M247.67,468.71h0c2.42,0,4.51,1.51,4.64,3.36l9.75,102.62a5.36,5.36,0,0,1-5.42,5.76h0a6.18,6.18,0,0,1-6.1-5.76l-7.09-102.62C243.34,470.21,245.25,468.71,247.67,468.71Z"/><path class="cls-5" d="M191.71,468.71h0c2.42,0,4.33,1.51,4.24,3.36l-7.09,113.64a6.18,6.18,0,0,1-6.1,5.76h0a5.36,5.36,0,0,1-5.42-5.76l9.74-113.64C187.2,470.21,189.29,468.71,191.71,468.71Z"/><path class="cls-5" d="M165,468.71h0c2.42,0,4.24,1.51,4,3.36L153.91,574.69a6.63,6.63,0,0,1-6.43,5.76h0a5,5,0,0,1-5.09-5.76l17.78-102.62C160.41,470.21,162.58,468.71,165,468.71Z"/><path d="M153.95,481H281.61a7.34,7.34,0,0,0,7.31-7.31h0a7.34,7.34,0,0,0-7.31-7.31H153.95a7.33,7.33,0,0,0-7.31,7.31h0A7.33,7.33,0,0,0,153.95,481Z"/><path d="M158.18,425.69H211.3c10.6,0,18.21-8.67,16.91-19.27l-10.13-82.85c-1.3-10.6-11-19.27-21.62-19.27H143.34c-10.6,0-18.21,8.67-16.91,19.27l10.13,82.85C137.86,417,147.59,425.69,158.18,425.69Z"/><path class="cls-6" d="M275.48,568.15a38.31,38.31,0,0,0,2.11,10.14A43.54,43.54,0,0,0,290.22,582l3-4,2.32,4s17.2,3.47,30.82-1.73a2.52,2.52,0,0,0,1.43-2.31c.18-3.18-.15-9.75-5.33-12.85-6.19-3.71-16.63-3.48-24.89-5.53-3.74-.93-4.95-1.64-7.45-1.35l-8.16,1C278,559.69,275.24,563.55,275.48,568.15Z"/><path d="M327.76,574.8a22,22,0,0,1,.06,3.2,2.52,2.52,0,0,1-1.43,2.31c-13.62,5.2-30.82,1.73-30.82,1.73l-2.32-4-3,4a43.54,43.54,0,0,1-12.63-3.74c-.32-.95-.58-1.84-.82-2.71,4.31,2.41,11.8,2.88,11.8,2.88l4.56-5,5,5.16A56.33,56.33,0,0,0,327.76,574.8Z"/><path d="M323.33,565.71C327.7,569,328,575,327.82,578a2.52,2.52,0,0,1-1.43,2.31,40.1,40.1,0,0,1-6.69,1.87c-.17-.55-.32-1.12-.45-1.7C318,574.41,319.74,568.63,323.33,565.71Z"/><path d="M298.73,560.9a31.77,31.77,0,0,0-1.35,5.1,8.26,8.26,0,0,0-.08,2.58,1.84,1.84,0,0,0,.52,1.06,1.39,1.39,0,0,0,1.1.29,1.82,1.82,0,0,0,1.1-.42,1.85,1.85,0,0,0,.54-1.06,7.07,7.07,0,0,0-.14-2.56A26.75,26.75,0,0,0,298.73,560.9Zm0,0a21.36,21.36,0,0,1,2,4.93,6.78,6.78,0,0,1,.2,2.69,2,2,0,0,1-2,1.8,1.77,1.77,0,0,1-1.37-.4,2.19,2.19,0,0,1-.62-1.27,7.76,7.76,0,0,1,.13-2.69A24.46,24.46,0,0,1,298.73,560.9Z"/><path d="M298.73,560.9a8.84,8.84,0,0,1,2.81,1.88,20.21,20.21,0,0,1,2.27,2.53,31.27,31.27,0,0,1,1.88,2.83l.81,1.49.72,1.53-1.79-2.86c-.62-.93-1.24-1.87-1.93-2.75a23.82,23.82,0,0,0-2.17-2.56A11.2,11.2,0,0,0,298.73,560.9Z"/><path class="cls-7" d="M299.86,561.29c1.82-13,5.54-25.8,7.71-40.72a92.09,92.09,0,0,0,.45-23.9c-.2-2.08-.68-4.16-1-6.25s-1-4.12-1.59-6.19-1.35-4-2.15-6.06a44,44,0,0,0-4-7.15c-5.87-8.24-12.19-13.31-18.43-18.09a202.94,202.94,0,0,0-19-12.39A414.88,414.88,0,0,0,223.06,421l-14.22,38.26a379,379,0,0,1,37.09,12.87,171.62,171.62,0,0,1,16.84,8c5.16,2.82,10,6.19,12.54,8.85.84.72.9,1.09,1.45,1.55l1.81,3.46c.48,1.21,1,2.41,1.5,3.65s.89,2.49,1.19,3.81a65.77,65.77,0,0,1,1.91,17.21c-.08,12.5-2.13,26.69-2.28,41.15Z"/><path class="cls-8" d="M209.76,463.53c17.16,6.68,36.21,13.83,50,17.77,0,0,13.66-15.27,17.25-41.64,0,0-32.12-21.94-62.61-29.68l-26.48-1.3h0A40.33,40.33,0,0,0,209.76,463.53Z"/><path class="cls-9" d="M235.14,427.33c.2,21-9.11,47.24-31.83,47.24s-41-17.19-40.8-38.22c.19-20.83,18.44-37.58,40.78-37.58S234.94,406.5,235.14,427.33Z"/><path class="cls-6" d="M246.75,580.78a38.31,38.31,0,0,0,2.11,10.14,43.55,43.55,0,0,0,12.63,3.74l3-4,2.32,4s17.2,3.47,30.82-1.73a2.52,2.52,0,0,0,1.43-2.31c.18-3.18-.15-9.75-5.33-12.85-6.19-3.71-16.63-3.48-24.89-5.53-3.74-.93-4.95-1.64-7.45-1.35l-8.16,1C249.31,572.33,246.51,576.18,246.75,580.78Z"/><path d="M299,587.43a22.1,22.1,0,0,1,.06,3.2,2.52,2.52,0,0,1-1.43,2.31c-13.62,5.2-30.82,1.73-30.82,1.73l-2.32-4-3,4a43.55,43.55,0,0,1-12.63-3.74c-.32-.95-.58-1.84-.82-2.71,4.31,2.41,11.8,2.88,11.8,2.88l4.56-5,5,5.16A56.33,56.33,0,0,0,299,587.43Z"/><path d="M294.6,578.35c4.37,3.28,4.66,9.28,4.49,12.28a2.52,2.52,0,0,1-1.43,2.31,40.1,40.1,0,0,1-6.69,1.87c-.17-.55-.32-1.12-.45-1.7C289.25,587,291,581.27,294.6,578.35Z"/><path d="M270,573.53a31.77,31.77,0,0,0-1.35,5.1,8.26,8.26,0,0,0-.08,2.58,1.84,1.84,0,0,0,.52,1.06,1.39,1.39,0,0,0,1.1.29,1.82,1.82,0,0,0,1.1-.42,1.85,1.85,0,0,0,.54-1.06,7.07,7.07,0,0,0-.14-2.56A26.75,26.75,0,0,0,270,573.53Zm0,0a21.36,21.36,0,0,1,2,4.93,6.78,6.78,0,0,1,.2,2.69,2,2,0,0,1-2,1.8,1.77,1.77,0,0,1-1.37-.4,2.19,2.19,0,0,1-.62-1.27,7.76,7.76,0,0,1,.13-2.69A24.46,24.46,0,0,1,270,573.53Z"/><path d="M270,573.53a8.84,8.84,0,0,1,2.81,1.88,20.22,20.22,0,0,1,2.27,2.53,31.29,31.29,0,0,1,1.88,2.83l.81,1.49.72,1.53-1.79-2.86c-.62-.93-1.24-1.87-1.93-2.75a23.82,23.82,0,0,0-2.17-2.56A11.2,11.2,0,0,0,270,573.53Z"/><path class="cls-10" d="M271.13,573.93c1.82-13,5.54-25.8,7.71-40.72a92.1,92.1,0,0,0,.45-23.9c-.2-2.08-.68-4.16-1-6.25s-1-4.12-1.59-6.19-1.35-4-2.15-6.06a44,44,0,0,0-4-7.15c-5.87-8.24-12.19-13.31-18.43-18.09a203.1,203.1,0,0,0-19-12.39,415,415,0,0,0-38.74-19.52l-14.22,38.26a379,379,0,0,1,37.09,12.87,171.59,171.59,0,0,1,16.84,8c5.16,2.82,10,6.19,12.53,8.85.84.72.9,1.09,1.45,1.55l1.81,3.46c.48,1.21,1,2.41,1.5,3.65s.89,2.49,1.19,3.81a65.77,65.77,0,0,1,1.91,17.21c-.08,12.5-2.13,26.69-2.28,41.15Z"/><path class="cls-9" d="M181,476.16c17.16,6.68,36.21,13.83,50,17.77,0,0,13.66-15.27,17.25-41.64,0,0-32.12-21.94-62.61-29.68l-26.48-1.3h0A40.33,40.33,0,0,0,181,476.16Z"/><path class="cls-11" d="M293.78,407a44.5,44.5,0,0,0,6.26-.38,8.39,8.39,0,0,0-2.48-16.6,45,45,0,0,1-34.2-11.29c-15.31-13.92-22.28-39.26-20.7-75.32a8.4,8.4,0,0,0-16.78-.73c-1.81,41.47,7.09,71.32,26.45,88.72C267.43,405,284.72,407,293.78,407Z"/><path class="cls-1" d="M247,309.54s.67,25,9.49,36.34c0,0-14.19,15.37-24.51,16.79,0,0-21-27.39-11.9-50S250.19,287.09,247,309.54Z"/><path class="cls-11" d="M320.37,392s1.21-3-.94-5-8.88,2.41-10.86,4.3Z"/><path class="cls-11" d="M300,406.6c-2.81.72-5.65-5.29-5.52-8.19.15-3.4.82-7.64,3.26-8.29,0,0,7.71-.1,16.55-.48s24.76,6.77,23.85,11.42-5.8,2.11-11.4-1-14.28-1.16-17.48,1.27C309.29,401.32,303.47,405.73,300,406.6Z"/><path class="cls-1" d="M249.2,411.59c2.37-68.43-5.85-115.71-5.85-115.71-13.84-14.75-43.3-13.43-43.3-13.43s-25.09-2.34-43.27,13.43c0,0-6.19,47.35-3.56,115.83a16.14,16.14,0,0,0,14.09,15.68,322.4,322.4,0,0,0,67.82-.06C242.91,426.49,248.92,419.76,249.2,411.59Z"/><polygon points="180.72 349.9 202.27 349.9 212.63 368.13 220.91 368.13 206 342.86 176.99 342.86 180.72 349.9"/><polygon class="cls-2" points="177.82 340.37 186.52 340.37 195.64 324.63 216.77 324.63 227.54 342.86 218.43 358.6 222.15 366.06 235.83 342.86 220.91 318 191.08 318 177.82 340.37"/><path class="cls-10" d="M185.72,285.19c-.6,4.24,1.85,6,5.9,7.39a27.22,27.22,0,0,0,16.21.41c4.34-1.24,7.14-3.11,6.5-7.59L212.7,274H187.31Z"/><path class="cls-12" d="M214.28,285.1,212.7,274H187.31l-.87,6.12A83.84,83.84,0,0,0,214.28,285.1Z"/><path class="cls-10" d="M154.61,214.76S147.55,201.64,138,208c-8.54,5.71,1.47,38.18,15.77,28Z"/><path class="cls-12" d="M151.79,216.25s-5.07-10.59-11.78-5.52c-6,4.55,1.31,28.24,11.38,20.08Z"/><ellipse class="cls-10" cx="148.57" cy="221.69" rx="3.77" ry="3.15" transform="translate(-11.77 8.36) rotate(-3.1)"/><path class="cls-13" d="M141.38,211.54c-3.68,2.78-2.82,12.94,1,18.41-4.51-5.09-6.28-16.24-2.35-19.22a5.65,5.65,0,0,1,7.33,0A5.52,5.52,0,0,0,141.38,211.54Z"/><path class="cls-12" d="M256.18,208c-9.51-6.36-16.57,6.75-16.57,6.75l.8,21.2C254.72,246.19,264.73,213.72,256.18,208Z"/><path class="cls-10" d="M240.84,183c3,8.54,4.82,20.25,7,31.31,2.07,10.71,8.3,46.26-25.21,59.3s-64.23-6.12-70.67-29.25c-7.27-26.09-3.73-42.21,2.38-59.12,8-22.25,26.56-29.76,46-30C219.08,155.07,234.54,164.24,240.84,183Z"/><path d="M230.05,175.15s7.07,5.51,9.56,19.24,4.58,18.06,7.82,18S252,183.2,235.95,169Z"/><path d="M144.82,208.48s4.34,7,11,4.13,8-38.25,8-38.25S193.29,181,218,179.45L211.22,173s23.92,10.17,40.8-7c0,0-9.94-10.45-24.79-13.93l9-1.61s-1.81-5.36-21.8-11.25-48.92-.79-56.69,21C157.72,160.31,139.84,167.51,144.82,208.48Z"/><path class="cls-14" d="M207.77,220.94s1.07,10.47,13.28,14.15c0,0-4.37,7.55-13.27,6.08,0,0,2.13-1,4.59-5C212.36,236.15,205.79,231.25,207.77,220.94Z"/><path class="cls-10" d="M239.71,404.73c1.39,0,2.41,0,3,0a8.39,8.39,0,0,0-.25-16.79h-.26c-12,.36-45.66-2-56.95-16.57C175,358,169.28,336.39,166.33,320.57a8.4,8.4,0,0,0-16.51,3.08c3.29,17.64,9.79,42,22.1,57.95C188.5,403,227.83,404.73,239.71,404.73Z"/><path class="cls-15" d="M267.88,390.57s1.21-3-.94-5-8.88,2.41-10.86,4.3Z"/><path class="cls-15" d="M245.59,403.7c-2.81.72-3.69-3.84-3.56-6.73.15-3.4-.72-8.22,1.71-8.86,0,0,9.26.48,18.1.1s24.76,6.77,23.85,11.42-5.8,2.11-11.4-1-17.19-2.56-20.4-.14C253.89,398.46,249,402.82,245.59,403.7Z"/><path class="cls-16" d="M177.88,350.82a233.64,233.64,0,0,0-23.65,4.73,3.46,3.46,0,0,1-4.3-2.42c-2.1-7.92-6.46-28.24-2.29-48.49.84-4.09,5.08-8.51,9.24-9.58,13-3.36,19.59,7.43,21.17,25.21,1.24,13.91,2.12,22.42,2.72,26.63A3.46,3.46,0,0,1,177.88,350.82Z"/><path class="cls-4" d="M163.62,591.89h0a8.25,8.25,0,0,1-8.25-8.25v-166h16.49v166A8.25,8.25,0,0,1,163.62,591.89Z"/><path class="cls-4" d="M82.79,591.89h0a8.25,8.25,0,0,1-8.25-8.25v-166H91v166A8.25,8.25,0,0,1,82.79,591.89Z"/><path class="cls-4" d="M418.83,417.65h11.58a2.46,2.46,0,0,1,2.46,2.46V591.89a0,0,0,0,1,0,0H416.37a0,0,0,0,1,0,0V420.1A2.46,2.46,0,0,1,418.83,417.65Z" transform="translate(849.23 1009.54) rotate(-180)"/><path class="cls-4" d="M338,417.65h11.58A2.46,2.46,0,0,1,352,420.1V591.89a0,0,0,0,1,0,0H335.54a0,0,0,0,1,0,0V420.1A2.46,2.46,0,0,1,338,417.65Z" transform="translate(687.57 1009.54) rotate(180)"/><rect class="cls-1" x="60.96" y="406.78" width="385.49" height="10.92" transform="translate(507.41 824.49) rotate(-180)"/><rect class="cls-4" x="74.54" y="417.7" width="358.32" height="19.95" transform="translate(507.41 855.36) rotate(-180)"/><polygon class="cls-17" points="318.65 399.28 361.65 399.28 364.31 373.06 321.31 373.06 318.65 399.28"/><path class="cls-18" d="M269.26,384.28H406a7.36,7.36,0,0,0,7.07-6.83l6.76-92.73a6.17,6.17,0,0,0-6.08-6.83H277a7.36,7.36,0,0,0-7.07,6.83l-6.76,92.73A6.17,6.17,0,0,0,269.26,384.28Z"/><path class="cls-17" d="M327.39,334c-.88,9,5.43,16.29,14.09,16.29S357.86,343,358.74,334s-5.43-16.28-14.09-16.28S328.27,325,327.39,334Z"/><rect class="cls-18" x="299.09" y="397.28" width="77.7" height="9.5" rx="1.39" ry="1.39" transform="translate(675.87 804.06) rotate(-180)"/><rect class="cls-18" x="201.11" y="397.28" width="92.26" height="9.5" rx="1.39" ry="1.39" transform="translate(494.48 804.06) rotate(-180)"/><rect class="cls-19" x="168" y="203" width="38" height="25.5" rx="2" ry="2"/><rect class="cls-19" x="215" y="203" width="38" height="25.5" rx="2" ry="2"/><line class="cls-20" x1="206" y1="207" x2="215" y2="207"/><line class="cls-20" x1="168" y1="207" x2="145.85" y2="198"/><line class="cls-20" x1="253" y1="207" x2="246" y2="205"/><path class="cls-21" d="M184.11,240c.92,6.33,3,24.78,19.5,26.8,18.26,2.24,26.25-22.67,26.25-22.67C202.13,248.7,184.11,240,184.11,240Z"/><path d="M201.07,192.6c-1-.19-2.09-.35-3.14-.45s-2.1-.21-3.15-.25a36.84,36.84,0,0,0-6.28.22,26,26,0,0,0-6.06,1.5l-1.43.63a13.59,13.59,0,0,0-1.37.76,21.82,21.82,0,0,0-2.6,1.8,17,17,0,0,1,5.19-3.7,23.94,23.94,0,0,1,6.19-1.7,32.34,32.34,0,0,1,6.4-.06A29,29,0,0,1,201.07,192.6Z"/><path d="M214.32,194.77a20.93,20.93,0,0,1,5.41-1.74,22.28,22.28,0,0,1,5.71-.32,22.58,22.58,0,0,1,2.84.41c.47.1.92.25,1.39.38l.69.2.66.28a17.62,17.62,0,0,1,4.89,2.89c-.85-.42-1.61-1-2.49-1.33l-1.27-.58c-.43-.17-.88-.3-1.32-.46a21.76,21.76,0,0,0-5.45-1.07,28.23,28.23,0,0,0-5.57.15c-.93.12-1.85.27-2.76.48A25.26,25.26,0,0,0,214.32,194.77Z"/><path d="M198.23,221.15a22.19,22.19,0,0,0-1.21-4.36,15.73,15.73,0,0,0-2.1-3.93,11.08,11.08,0,0,0-3.25-2.89,9.77,9.77,0,0,0-4.18-1.07,9,9,0,0,0-4.23.79,9.21,9.21,0,0,0-3.32,2.76,14.77,14.77,0,0,0-2,4,21.17,21.17,0,0,0-1.07,4.39,16.63,16.63,0,0,1,2.55-8.74,9.18,9.18,0,0,1,3.52-3.08,9.81,9.81,0,0,1,4.6-.95,9.75,9.75,0,0,1,7.94,4.45A17.69,17.69,0,0,1,198.23,221.15Z"/><path d="M240.61,220.38a22.19,22.19,0,0,0-1.21-4.36,15.73,15.73,0,0,0-2.1-3.93A11.08,11.08,0,0,0,234,209.2a9.77,9.77,0,0,0-4.18-1.07,9,9,0,0,0-4.23.79,9.21,9.21,0,0,0-3.32,2.76,14.77,14.77,0,0,0-2,4,21.17,21.17,0,0,0-1.07,4.39,16.63,16.63,0,0,1,2.55-8.74,9.18,9.18,0,0,1,3.52-3.08,9.81,9.81,0,0,1,4.6-.95,9.75,9.75,0,0,1,7.94,4.45A17.69,17.69,0,0,1,240.61,220.38Z"/></svg>