<svg id="Layer_1" data-name="Layer 1" xmlns="http://www.w3.org/2000/svg" viewBox="0 0 25 20"><defs><style>.cls-1{fill:#999;}</style></defs><title>mail</title><path class="cls-1" d="M3.21,6.35,5.84,8.18,9.2,10.52l.55.39.69.49.67.42a3.87,3.87,0,0,0,.74.35,2,2,0,0,0,.64.12h0a2,2,0,0,0,.64-.12,3.88,3.88,0,0,0,.74-.35l.67-.42.69-.49.55-.39,6-4.17a6.1,6.1,0,0,0,1.57-1.58A3.39,3.39,0,0,0,24,2.83a2,2,0,0,0-.61-1.45,2,2,0,0,0-1.44-.6H3.05a1.83,1.83,0,0,0-1.52.67A2.59,2.59,0,0,0,1,3.11a3,3,0,0,0,.71,1.75A6.37,6.37,0,0,0,3.21,6.35Z"/><path class="cls-1" d="M22.72,7.72q-4.21,2.85-6.39,4.43-.73.54-1.19.84a7.33,7.33,0,0,1-1.21.62,3.69,3.69,0,0,1-1.41.31h0a3.69,3.69,0,0,1-1.41-.31A7.33,7.33,0,0,1,9.86,13q-.46-.3-1.19-.84Q6.94,10.88,2.3,7.72A6.8,6.8,0,0,1,1,6.61V16.8a2,2,0,0,0,.6,1.45,2,2,0,0,0,1.45.6H21.95A2.06,2.06,0,0,0,24,16.8V6.61A7.08,7.08,0,0,1,22.72,7.72Z"/></svg>